<?xml version="1.0" encoding="UTF-8" standalone="no"?>
<svg
   version="1.1"
   id="Layer_1"
   x="0px"
   y="0px"
   width="400"
   viewBox="0 0 400 400"
   enable-background="new 0 0 2048 2048"
   xml:space="preserve"
   height="400"
   xmlns="http://www.w3.org/2000/svg"
   xmlns:svg="http://www.w3.org/2000/svg"><defs
   id="defs9"><linearGradient
     id="swatch35"
     gradientTransform="matrix(0.65060781,0,0,0.64921757,-14.513483,594.13252)"><stop
       style="stop-color:#000000;stop-opacity:1;"
       offset="0"
       id="stop35" /></linearGradient><linearGradient
     id="swatch11"
     gradientTransform="translate(0,20)"><stop
       style="stop-color:#00bfff;stop-opacity:1;"
       offset="0"
       id="stop11" /></linearGradient><linearGradient
     id="swatch10"
     gradientTransform="matrix(-0.01250133,0,0,0.01247461,2067.4516,6530.4588)"><stop
       style="stop-color:#ff5e00;stop-opacity:1;"
       offset="0"
       id="stop10" /></linearGradient></defs>








<rect
   style="fill:#ffffff;fill-opacity:1;fill-rule:evenodd"
   id="rect9"
   width="400"
   height="400"
   x="0"
   y="0"
   rx="0.00036621094"
   ry="0.00036621094" /><g
   id="g9"
   transform="matrix(1.232952,0,0,1.232952,-59.805247,-60.913836)"
   style="fill:#000000;fill-opacity:1;stroke:#000000;stroke-width:2.43318;stroke-dasharray:none;stroke-opacity:1"><path
     fill="#020303"
     opacity="1"
     stroke="none"
     d="m 146.94548,147.50364 c 7e-5,-14.40306 7e-5,-28.70143 7e-5,-43.07097 3.78514,0 7.50426,0 11.31109,0 0,1.64773 -0.0345,3.24528 0.0262,4.83915 0.0138,0.36336 0.26557,0.85628 0.5623,1.04938 5.09012,3.31267 10.21051,6.5782 15.31218,9.87301 7.54855,4.87511 15.08767,9.76498 22.63064,14.64886 2.96982,1.92289 5.92654,3.86679 8.91886,5.75358 0.63655,0.40137 0.86742,0.83775 0.86417,1.58403 -0.0368,8.39953 -0.0431,16.79918 -0.0534,25.1988 -0.005,4.03241 0,8.06483 0,12.30858 -16.12591,-10.44031 -32.13448,-20.80464 -48.238,-31.23044 -0.0458,0.24626 -0.0978,0.395 -0.0979,0.54373 -0.006,32.82938 -0.0107,65.65875 -0.0108,98.48815 -1.3e-4,10.29067 -0.0642,20.58212 0.0377,30.87182 0.0874,8.83124 -3.21459,16.22042 -9.12658,22.52825 -7.97956,8.51384 -17.94844,13.4898 -29.13521,16.15119 -8.1165,1.93099 -16.32401,2.3621 -24.561928,0.85217 -5.952726,-1.09107 -11.557562,-3.10464 -16.466121,-6.79804 -10.165694,-7.64913 -12.880798,-19.05546 -7.256721,-30.51719 3.097924,-6.31348 7.764496,-11.21076 13.437632,-15.24052 7.053304,-5.01009 14.820436,-8.34946 23.244658,-10.12944 9.88306,-2.08824 19.75533,-2.31067 29.44753,0.95393 2.82759,0.95243 5.45822,2.4973 8.17612,3.77708 0.27307,0.12856 0.52517,0.30223 0.97818,0.56651 0,-37.7434 0,-75.32017 6e-5,-113.00162 z"
     id="path4"
     style="fill:url(#swatch10);fill-opacity:1;stroke:#000000;stroke-width:2.43318;stroke-dasharray:none;stroke-opacity:1" /><path
     fill="#040404"
     opacity="1"
     stroke="none"
     d="m 320.4604,228.82856 c 10.769,-0.004 21.43388,-0.004 32.1724,-0.004 0,3.77435 0,7.45415 0,11.23037 -41.71826,0 -83.44186,0 -125.25195,0 0,-3.68751 0,-7.40588 0,-11.2217 30.97365,0 61.97453,0 93.07955,-0.004 z"
     id="path5"
     style="fill:#00bfff;fill-opacity:0.398936;stroke:#000000;stroke-width:2.43318;stroke-dasharray:none;stroke-opacity:1" /><path
     fill="#040404"
     opacity="1"
     stroke="none"
     d="m 351.61523,194.28211 c -41.45034,0.002 -82.80436,0.002 -124.23864,0.002 0,-3.79283 0,-7.49991 0,-11.28764 41.70587,0 83.429,0 125.23839,0 0,3.7423 0,7.45213 0,11.2348 -0.29519,0.016 -0.59928,0.0325 -0.99975,0.0509 z"
     id="path7"
     style="fill:url(#swatch11);fill-opacity:1;stroke:#000000;stroke-width:2.43318;stroke-dasharray:none;stroke-opacity:1" /><path
     fill="#030303"
     opacity="1"
     stroke="none"
     d="m 280.4995,151.95934 c -17.74168,0.005 -35.37932,0.005 -53.10472,0.005 0,-3.75491 0,-7.45799 0,-11.25698 41.73311,0 83.4604,0 125.25905,0 0,3.70294 0,7.44517 0,11.246 -24.03365,0 -48.04202,0 -72.15433,0.005 z"
     id="path8"
     style="fill:url(#swatch11);fill-opacity:1;stroke:#000000;stroke-width:2.43318;stroke-dasharray:none;stroke-opacity:1" /><path
     fill="#040404"
     opacity="1"
     stroke="none"
     d="m 258.22974,219.03693 c -10.32712,1.5e-4 -20.5502,1.5e-4 -30.8504,1.5e-4 0,-3.72417 0,-7.41029 0,-11.19146 41.70541,0 83.46223,0 125.27067,0 0,3.68584 0,7.37063 0,11.19115 -31.44608,0 -62.88112,0 -94.42027,1.6e-4 z"
     id="path9"
     style="opacity:1;fill:#00bfff;fill-opacity:0.601064;stroke:#000000;stroke-width:2.43318;stroke-dasharray:none;stroke-opacity:1" /><path
     fill="#040404"
     opacity="1"
     stroke="none"
     d="m 320.66821,282.52998 c -31.12797,-1.7e-4 -62.15187,-1.7e-4 -93.27957,-1.7e-4 0,-3.79155 0,-7.53201 0,-11.35062 41.73667,0 83.4689,0 125.25783,0 0,3.75627 0,7.47246 0,11.35092 -10.62365,0 -21.2489,0 -31.97826,-1.3e-4 z"
     id="path1"
     style="fill:url(#swatch35);fill-opacity:1;stroke:#000000;stroke-width:2.43318;stroke-dasharray:none;stroke-opacity:1" /><path
     fill="#040404"
     opacity="1"
     stroke="none"
     d="m 320.66821,282.52998 c -31.12797,-1.7e-4 -62.15187,-1.7e-4 -93.27957,-1.7e-4 0,-3.79155 0,-7.53201 0,-11.35062 41.73667,0 83.4689,0 125.25783,0 0,3.75627 0,7.47246 0,11.35092 -10.62365,0 -21.2489,0 -31.97826,-1.3e-4 z"
     id="path2"
     style="fill:#00bfff;fill-opacity:0.800532;stroke:#000000;stroke-width:2.43318;stroke-dasharray:none;stroke-opacity:1" /></g>
</svg>
