<?xml version="1.0" encoding="UTF-8" standalone="no"?>
<svg
   version="1.1"
   id="Layer_1"
   x="0px"
   y="0px"
   width="400"
   viewBox="0 0 400 400"
   enable-background="new 0 0 2048 2048"
   xml:space="preserve"
   height="400"
   xmlns="http://www.w3.org/2000/svg"
   xmlns:svg="http://www.w3.org/2000/svg"><defs
   id="defs9" />
<path
   fill="#fefefd"
   opacity="1"
   stroke="none"
   d="M 400,150.19531 C 400,233.52863 400,316.76434 400,400 266.66668,400 133.33334,400 0,400 0,266.66668 0,133.33334 0,0 c 133.33334,0 266.66668,0 400,0 0,50.032551 0,100.0651 0,150.19531 M 212.0117,39.085883 c -58.7457,0 -117.491393,0 -176.24871,0 0,108.918877 0,217.705917 0,326.531657 109.51857,0 218.96914,0 328.44857,0 0,-108.86984 0,-217.67617 0,-326.533237 -50.72441,0 -101.36447,0 -152.19986,0.0016 z"
   id="path1"
   style="stroke-width:1" />







<g
   id="g9"
   transform="translate(-10.762979,-14.084323)"><path
     fill="#030404"
     opacity="1"
     stroke="none"
     d="m 223.68048,39.085152 c 54.06691,-8.37e-4 108.02976,-8.37e-4 162.08249,-8.37e-4 0,116.680235 0,233.306085 0,350.000015 -116.66301,0 -233.29526,0 -349.999982,0 0,-116.64665 0,-233.25184 0,-349.998322 62.612726,0 125.213062,0 187.917492,-8.38e-4 M 187.36213,377.8195 c 62.42457,0 124.84911,0 187.26443,0 0,-109.21515 0,-218.35434 0,-327.469832 -109.31636,0 -218.51909,0 -327.709918,0 0,109.199942 0,218.301952 0,327.469972 46.807546,0 93.522448,0 140.445488,-1.4e-4 z"
     id="path2"
     style="stroke-width:1" /><path
     fill="#fefefe"
     opacity="1"
     stroke="none"
     d="m 187.25807,377.81956 c -46.81898,8e-5 -93.533882,8e-5 -140.341428,8e-5 0,-109.16802 0,-218.27003 0,-327.469972 109.190828,0 218.393558,0 327.709918,0 0,109.115492 0,218.254682 0,327.469832 -62.41532,0 -124.83986,0 -187.36849,6e-5 M 146.94542,147.60832 c 0,37.57677 0,75.15354 0,112.89694 -0.453,-0.26428 -0.7051,-0.43795 -0.97818,-0.56651 -2.7179,-1.27978 -5.34852,-2.82465 -8.17611,-3.77708 -9.69221,-3.2646 -19.56447,-3.04217 -29.44754,-0.95393 -8.424218,1.77998 -16.19135,5.11935 -23.244654,10.12944 -5.673137,4.02976 -10.339708,8.92704 -13.437632,15.24052 -5.624077,11.46173 -2.908973,22.86806 7.25672,30.51719 4.90856,3.6934 10.513396,5.70697 16.46612,6.79804 8.237916,1.50993 16.445426,1.07882 24.561926,-0.85217 11.18677,-2.66139 21.15566,-7.63735 29.13521,-16.15119 5.91199,-6.30783 9.214,-13.69701 9.12658,-22.52825 -0.10187,-10.2897 -0.0378,-20.58115 -0.0377,-30.87182 4.1e-4,-32.8294 0.004,-65.65877 0.0108,-98.48815 2e-5,-0.14873 0.052,-0.29747 0.0978,-0.54373 16.10353,10.4258 32.11209,20.79013 48.238,31.23044 0,-4.24375 -0.004,-8.27617 0,-12.30858 0.0107,-8.39962 0.0166,-16.79927 0.0534,-25.1988 0.003,-0.74628 -0.22764,-1.18266 -0.86417,-1.58403 -2.99233,-1.88679 -5.94904,-3.83069 -8.91887,-5.75358 -7.54297,-4.88388 -15.08208,-9.77375 -22.63064,-14.64886 -5.10167,-3.29481 -10.22206,-6.56034 -15.31217,-9.87301 -0.29674,-0.1931 -0.54846,-0.68602 -0.56231,-1.04938 -0.0607,-1.59387 -0.0262,-3.19142 -0.0262,-4.83915 -3.80684,0 -7.52596,0 -11.3111,0 0,14.36954 0,28.66791 -1.3e-4,43.17565 m 173.41087,81.22457 c -31.00091,0 -62.00179,0 -92.97544,0 0,3.81582 0,7.5342 0,11.22171 41.81009,0 83.53369,0 125.25195,0 0,-3.77622 0,-7.45602 0,-11.23037 -10.73852,0 -21.40339,0 -32.27651,0.009 m 0.41598,53.69722 c 10.6253,0 21.25056,0 31.8742,0 0,-3.87847 0,-7.59466 0,-11.35092 -41.78893,0 -83.52115,0 -125.25783,0 0,3.8186 0,7.55906 0,11.35063 31.1277,0 62.15161,0 93.38363,0 m 30.93931,-88.24994 c 0.30411,-0.0165 0.60821,-0.033 0.9034,-0.049 0,-3.78268 0,-7.49251 0,-11.23481 -41.80939,0 -83.53252,0 -125.23839,0 0,3.78773 0,7.49481 0,11.28764 41.43429,0 82.7883,0 124.33499,-0.004 m -71.10728,-42.32596 c 24.00835,0 48.01671,0 72.05037,0 0,-3.80082 0,-7.54305 0,-11.246 -41.79865,0 -83.52594,0 -125.25906,0 0,3.799 0,7.50207 0,11.25697 17.7254,0 35.36305,0 53.20869,-0.0109 m -22.26963,67.08292 c 31.43506,0 62.8701,0 94.31617,0 0,-3.82052 0,-7.50531 0,-11.19114 -41.80843,0 -83.56526,0 -125.27067,0 0,3.78117 0,7.46728 0,11.19145 10.3002,0 20.52328,0 30.9545,0 z"
     id="path3"
     style="stroke-width:1" /><path
     fill="#020303"
     opacity="1"
     stroke="none"
     d="m 146.94548,147.50364 c 7e-5,-14.40306 7e-5,-28.70143 7e-5,-43.07097 3.78514,0 7.50426,0 11.31109,0 0,1.64773 -0.0345,3.24528 0.0262,4.83915 0.0138,0.36336 0.26557,0.85628 0.5623,1.04938 5.09012,3.31267 10.21051,6.5782 15.31218,9.87301 7.54855,4.87511 15.08767,9.76498 22.63064,14.64886 2.96982,1.92289 5.92654,3.86679 8.91886,5.75358 0.63655,0.40137 0.86742,0.83775 0.86417,1.58403 -0.0368,8.39953 -0.0431,16.79918 -0.0534,25.1988 -0.005,4.03241 0,8.06483 0,12.30858 -16.12591,-10.44031 -32.13448,-20.80464 -48.238,-31.23044 -0.0458,0.24626 -0.0978,0.395 -0.0979,0.54373 -0.006,32.82938 -0.0107,65.65875 -0.0108,98.48815 -1.3e-4,10.29067 -0.0642,20.58212 0.0377,30.87182 0.0874,8.83124 -3.21459,16.22042 -9.12658,22.52825 -7.97956,8.51384 -17.94844,13.4898 -29.13521,16.15119 -8.1165,1.93099 -16.32401,2.3621 -24.561928,0.85217 -5.952726,-1.09107 -11.557562,-3.10464 -16.466121,-6.79804 -10.165694,-7.64913 -12.880798,-19.05546 -7.256721,-30.51719 3.097924,-6.31348 7.764496,-11.21076 13.437632,-15.24052 7.053304,-5.01009 14.820436,-8.34946 23.244658,-10.12944 9.88306,-2.08824 19.75533,-2.31067 29.44753,0.95393 2.82759,0.95243 5.45822,2.4973 8.17612,3.77708 0.27307,0.12856 0.52517,0.30223 0.97818,0.56651 0,-37.7434 0,-75.32017 6e-5,-113.00162 z"
     id="path4"
     style="stroke-width:1" /><path
     fill="#040404"
     opacity="1"
     stroke="none"
     d="m 320.4604,228.82856 c 10.769,-0.004 21.43388,-0.004 32.1724,-0.004 0,3.77435 0,7.45415 0,11.23037 -41.71826,0 -83.44186,0 -125.25195,0 0,-3.68751 0,-7.40588 0,-11.2217 30.97365,0 61.97453,0 93.07955,-0.004 z"
     id="path5"
     style="stroke-width:1" /><path
     fill="#040404"
     opacity="1"
     stroke="none"
     d="m 320.66821,282.52998 c -31.12797,-1.7e-4 -62.15187,-1.7e-4 -93.27957,-1.7e-4 0,-3.79155 0,-7.53201 0,-11.35062 41.73667,0 83.4689,0 125.25783,0 0,3.75627 0,7.47246 0,11.35092 -10.62365,0 -21.2489,0 -31.97826,-1.3e-4 z"
     id="path6"
     style="stroke-width:1" /><path
     fill="#040404"
     opacity="1"
     stroke="none"
     d="m 351.61523,194.28211 c -41.45034,0.002 -82.80436,0.002 -124.23864,0.002 0,-3.79283 0,-7.49991 0,-11.28764 41.70587,0 83.429,0 125.23839,0 0,3.7423 0,7.45213 0,11.2348 -0.29519,0.016 -0.59928,0.0325 -0.99975,0.0509 z"
     id="path7"
     style="stroke-width:1" /><path
     fill="#030303"
     opacity="1"
     stroke="none"
     d="m 280.4995,151.95934 c -17.74168,0.005 -35.37932,0.005 -53.10472,0.005 0,-3.75491 0,-7.45799 0,-11.25698 41.73311,0 83.4604,0 125.25905,0 0,3.70294 0,7.44517 0,11.246 -24.03365,0 -48.04202,0 -72.15433,0.005 z"
     id="path8"
     style="stroke-width:1" /><path
     fill="#040404"
     opacity="1"
     stroke="none"
     d="m 258.22974,219.03693 c -10.32712,1.5e-4 -20.5502,1.5e-4 -30.8504,1.5e-4 0,-3.72417 0,-7.41029 0,-11.19146 41.70541,0 83.46223,0 125.27067,0 0,3.68584 0,7.37063 0,11.19115 -31.44608,0 -62.88112,0 -94.42027,1.6e-4 z"
     id="path9"
     style="stroke-width:1" /></g>
</svg>
