<?xml version="1.0" encoding="UTF-8" standalone="no"?>
<svg
   version="1.1"
   id="Layer_1"
   x="0px"
   y="0px"
   width="400"
   viewBox="0 0 400 400"
   enable-background="new 0 0 2048 2048"
   xml:space="preserve"
   height="400"
   xmlns="http://www.w3.org/2000/svg"
   xmlns:svg="http://www.w3.org/2000/svg"><defs
   id="defs9"><linearGradient
     id="swatch35"
     gradientTransform="matrix(0.65060781,0,0,0.64921757,-14.513483,594.13252)"><stop
       style="stop-color:#000000;stop-opacity:1;"
       offset="0"
       id="stop35" /></linearGradient><linearGradient
     id="swatch11"
     gradientTransform="matrix(0.89919037,0,0,0.89919037,-338.41125,65.446229)"><stop
       style="stop-color:#00bfff;stop-opacity:1;"
       offset="0"
       id="stop11" /></linearGradient><linearGradient
     id="swatch10"
     gradientTransform="matrix(-0.00479286,0,0,0.00507344,-304.57093,2867.7217)"><stop
       style="stop-color:#ff5e00;stop-opacity:1;"
       offset="0"
       id="stop10" /></linearGradient></defs>








<rect
   style="fill:#ffffff;fill-opacity:1;fill-rule:evenodd"
   id="rect9-8"
   width="400"
   height="400"
   x="0"
   y="0"
   rx="0.00036621094"
   ry="0.00036621094" />
<g
   id="Layer_1-0"
   style="display:inline;fill:url(#swatch10);stroke:#000000;stroke-width:0.554448;stroke-linecap:round;stroke-linejoin:round;stroke-dasharray:none;stroke-opacity:1"
   transform="matrix(5.4137829,0,0,5.4078003,4.50209,9.1888727)"><path
     id="path1-9"
     style="display:inline;fill:url(#swatch10);stroke:#000000;stroke-width:0.554448;stroke-linecap:round;stroke-linejoin:round;stroke-dasharray:none;stroke-opacity:1"
     d="m 24.02546,4.0000441 c -3.489128,0 -6.473344,0.5295018 -9.0001,1.4219142 -1.51e-4,-0.00729 -0.0017,-0.014346 -0.0019,-0.021639 -0.625751,0.21834 -1.2225,0.4609203 -1.789056,0.724756 -0.763518,0.3555572 -1.472595,0.7493891 -2.127068,1.1794926 -0.306342,0.2004594 -0.597785,0.4102148 -0.880901,0.6250276 -0.0059,0.00445 -0.01166,0.00935 -0.01754,0.013799 -0.02382,0.018132 -0.05058,0.034457 -0.07424,0.052687 0.0014,5.376e-4 0.0027,0.00134 0.0041,0.00188 -1.8507778,1.4206522 -3.1620169,3.1457895 -4.0000793,5.0215465 -0.00984,3.29e-4 -0.019583,-3.29e-4 -0.029447,0 -0.11,0.25 -0.2185659,0.500158 -0.3085659,0.750158 -0.01,0.02 -0.011302,0.03049 -0.021302,0.05049 -0.08,0.24 -0.1586833,0.469075 -0.2286834,0.709075 -0.08,0.26 -0.151116,0.521206 -0.201116,0.781206 -0.06,0.26 -0.1103672,0.529046 -0.1503672,0.789046 -0.05428,0.336537 -0.092344,0.67684 -0.117161,1.01767 v 0.0019 h -0.00188 c -0.00485,0.07037 -0.00416,0.1397 -0.00783,0.209179 -0.00909,0.165439 -0.019452,0.330397 -0.021615,0.496133 -6.95e-4,0.0518 0,0.104382 0,0.156179 1e-7,2.518363 0.7357582,5.417582 1.9532064,8.345827 l -3.133e-4,3.14e-4 v 3.13e-4 c -4.287e-4,8.28e-4 -0.00122,0.0024 -0.00157,0.0031 2.3920171,5.750985 6.6412327,11.602972 10.8436637,14.923827 0.01637,0.01533 0.03249,0.03173 0.04887,0.04485 0.01807,0.01448 0.03456,0.02752 0.05263,0.04108 0.0013,0.0013 0.0043,0.0025 0.006,0.0038 0.06012,0.04689 0.119727,0.09309 0.179814,0.13893 0.0014,0.0012 0.0024,0.0026 0.0038,0.0038 l 0.0022,0.0019 h 0.0019 l 3.14e-4,3.14e-4 c 9.23e-4,5.5e-4 0.0025,9.69e-4 0.0034,0.0016 v 3.13e-4 c 0.0056,0.0044 0.0099,0.0092 0.01566,0.01348 0.0269,0.02018 0.0543,0.03875 0.07832,0.05676 0.07574,0.05891 0.150758,0.109237 0.220538,0.165901 0.01348,0.01093 0.02617,0.02187 0.03916,0.03324 0.03658,0.02439 0.0697,0.04813 0.103377,0.07025 0.0034,0.0022 0.0066,0.0057 0.01002,0.0078 0.676735,0.484906 1.309835,0.87487 2.009595,1.232493 0.02261,0.01156 0.07048,0.02948 0.07048,0.02948 0,0 2.294958,0.900378 3.335958,0.900378 0.130997,0 0.270066,-0.0097 0.410063,-0.01976 0.03826,0 0.07702,-0.0035 0.115282,-0.0078 0.03173,-0.0036 0.06383,-0.0071 0.09555,-0.0116 0.01891,0 0.03289,-0.0013 0.04887,-0.0038 0.0094,-0.0015 0.02026,-0.0041 0.03133,-0.0078 1.252,-0.17 2.683533,-0.799951 4.185532,-1.749951 0.26,-0.17 0.530994,-0.35882 0.790994,-0.54882 4.675688,-3.479768 9.512619,-10.239587 11.845798,-16.619211 0.002,3.79e-4 0.004,-1.01e-4 0.0056,0 0.910805,-2.481133 1.443211,-4.902162 1.443211,-7.047162 0,-7.273 -6.325452,-13.984247 -18.974452,-13.984247 z m -2.502047,4.999907 c 6.939,0 13.068163,3.4392649 16.783165,8.6992669 -0.12,-0.08 -0.230483,-0.158344 -0.351483,-0.238344 -1.893,-1.560001 -4.075919,-2.771266 -6.468919,-3.531265 -1.872,-0.61 -3.875924,-0.929544 -5.958924,-0.929544 -2.694,0 -5.265493,0.549169 -7.599493,1.529169 2.483,3.77 7.099522,8.580872 7.099522,16.470872 0,3.432735 -1.118364,6.102789 -1.718571,7.298679 -0.07774,0.1549 -0.09386,0.192393 -0.150367,0.295108 -0.102008,0.185417 -0.224611,0.406127 -0.224611,0.406127 0.711,-1.86 1.091728,-3.880014 1.091728,-6.000014 0,-0.31 -0.0094,-0.629544 -0.02945,-0.929544 -0.01,-0.309999 -0.04017,-0.619858 -0.07017,-0.929858 -0.06,-0.52 -0.140275,-1.031365 -0.240275,-1.531365 -0.03,-0.17 -0.06933,-0.329896 -0.109329,-0.499896 -0.05,-0.21 -0.100078,-0.428513 -0.160078,-0.638513 -0.07,-0.26 -0.150563,-0.511484 -0.230563,-0.771484 -0.18,-0.54 -0.390205,-1.07001 -0.621205,-1.59001 -0.05,-0.12 -0.109789,-0.249121 -0.169789,-0.369121 -0.971,-2.05 -2.342742,-3.880945 -4.015742,-5.380945 -0.03,-0.03 -0.04988,-0.05997 -0.07988,-0.07997 -1.452,-1.49 -2.643063,-2.849558 -3.584063,-4.019558 -1.382,-1.7 -2.65392,-3.609739 -3.29492,-4.599739 2.984,-1.6899996 6.428418,-2.6600519 10.103418,-2.6600519 z M 18.7482,41.929778 c 0.129998,0.1 0.261522,0.179393 0.392521,0.269392 0.02517,0.01798 0.04907,0.03495 0.07424,0.0508 0.04482,0.02824 0.08989,0.05436 0.134703,0.07997 -0.091,-0.05915 -0.182254,-0.117412 -0.27348,-0.177504 C 18.966927,42.080473 18.85719,42.00607 18.7482,41.929778 Z" /></g><path
   style="fill:url(#swatch10);stroke:#000000;stroke-width:4;stroke-linecap:butt;stroke-linejoin:round;stroke-dasharray:none;stroke-opacity:1;paint-order:fill markers stroke"
   d="M 300.1373,-3.1215745e-6 V 400"
   id="path3" /><path
   style="fill:url(#swatch10);stroke:#000000;stroke-width:4;stroke-linecap:butt;stroke-linejoin:round;stroke-dasharray:none;stroke-opacity:1;paint-order:fill markers stroke"
   d="M 0.04095,292.41871 H 400"
   id="path6" /><rect
   style="fill:url(#swatch11);fill-rule:evenodd;stroke:#000000;stroke-width:3;stroke-dasharray:none;stroke-opacity:1"
   id="rect6"
   width="27"
   height="27"
   x="286.63733"
   y="278.9187"
   rx="0.00036621097"
   ry="0.00036621097" /></svg>
